<?xml version="1.0" encoding="UTF-8"?>
<!DOCTYPE svg PUBLIC "-//W3C//DTD SVG 1.1//EN" "http://www.w3.org/Graphics/SVG/1.1/DTD/svg11.dtd">
<!-- Creator: CorelDRAW X7 -->
<svg xmlns="http://www.w3.org/2000/svg" xml:space="preserve" width="145.593mm" height="153.966mm" version="1.1" style="shape-rendering:geometricPrecision; text-rendering:geometricPrecision; image-rendering:optimizeQuality; fill-rule:evenodd; clip-rule:evenodd"
viewBox="0 0 4482 4739"
 xmlns:xlink="http://www.w3.org/1999/xlink">
 <defs>
  <style type="text/css">
   <![CDATA[
    .fil0 {fill:#E6E6E6}
   ]]>
  </style>
 </defs>
 <g id="Layer_x0020_1">
  <metadata id="CorelCorpID_0Corel-Layer"/>
  <path class="fil0" d="M721 3294l124 -2c178,-9 197,-18 414,-18 143,0 274,6 412,16l3 -569 -412 -39c-57,-277 -73,-541 35,-795 -149,-113 -439,-222 -414,-459 12,-112 104,-207 213,-221 113,-14 174,29 239,88 29,27 43,32 61,49 -56,-142 -357,-309 -611,-2 -178,215 -251,321 -363,604 -98,248 -141,533 -140,826 0,167 42,258 120,357 53,66 185,157 319,165z"/>
  <path class="fil0" d="M1531 2370c0,119 -1,111 173,111 13,106 3,936 3,1116 0,155 -16,1035 10,1106 178,33 134,3 134,-422l0 -1564 2272 3c0,233 -14,1901 8,1980 34,16 23,13 71,13 88,0 65,-49 65,-215 0,-310 -11,-1875 3,-2017 154,0 212,36 212,-111 0,-50 -12,-73 -63,-73l-2812 0c-62,0 -76,10 -76,73z"/>
  <path class="fil0" d="M1419 8c-300,49 -555,320 -500,683 46,297 328,551 678,498 299,-45 558,-326 503,-680 -47,-301 -327,-559 -681,-501z"/>
  <path class="fil0" d="M3604 2166c-87,-41 -701,-2 -865,-18l26 -15c59,-50 121,-111 103,-230 -36,-242 -305,-183 -481,-195 -100,-7 -201,-21 -295,-40 -280,-57 -596,-181 -800,-373 -27,-26 -67,-49 -115,-58 -202,-38 -345,184 -226,355 55,78 272,223 390,283 305,156 672,274 1072,286 -19,123 11,98 247,98l706 0c103,0 282,41 238,-93z"/>
  <path class="fil0" d="M1529 3316l-1363 -5c-18,-66 -7,-243 -7,-322 0,-46 -13,-284 14,-304 66,-33 38,-175 38,-250l1 -598c0,-54 -4,-82 -53,-94 -189,-45 -127,141 -127,508l0 369c5,80 23,33 46,87l0 586c-29,38 -43,1 -66,48 -65,126 153,93 248,93 157,0 313,0 470,0l0 815c-15,48 -582,156 -617,200 -34,45 23,65 -5,146 -20,60 6,113 52,134 118,53 217,-110 96,-183 10,-8 7,-7 25,-15l501 -115c68,-1 418,98 530,118 -204,206 198,292 151,76 -9,-41 -22,-25 -10,-69 29,-112 -19,-102 -133,-136 -51,-15 -99,-30 -151,-45 -98,-29 -203,-62 -301,-86l0 -840 631 1c91,-6 93,-101 30,-119z"/>
  <path class="fil0" d="M2334 3510c0,-249 -3,-542 -229,-672 -44,-26 -163,-76 -222,-72 2,569 5,1141 0,1711 0,84 -18,110 63,138 59,21 127,20 184,-6 114,-51 133,-138 149,-286 28,-262 55,-544 55,-813z"/>
  <path class="fil0" d="M3571 2137c48,10 31,13 77,1 34,-36 99,-513 114,-599 17,-104 35,-204 52,-307 10,-62 76,-255 -6,-272 -86,-17 -79,105 -104,250 -18,103 -35,207 -52,306 -17,103 -34,204 -52,307 -11,67 -64,268 -29,314z"/>
  <path class="fil0" d="M3604 2166c2,-1 6,-5 7,-3 2,3 10,-5 15,-8 18,-12 5,-1 22,-17 -46,12 -29,9 -77,-1 -74,8 -789,9 -806,-4l-26 15c164,16 778,-23 865,18z"/>
 </g>
</svg>
